<?xml version="1.0" standalone="no"?>
<!DOCTYPE svg PUBLIC "-//W3C//DTD SVG 20010904//EN"
 "http://www.w3.org/TR/2001/REC-SVG-20010904/DTD/svg10.dtd">
<svg version="1.0" xmlns="http://www.w3.org/2000/svg"
 width="1280.000000pt" height="1102.000000pt" viewBox="0 0 1280.000000 1102.000000"
 preserveAspectRatio="xMidYMid meet">
<metadata>
Created by potrace 1.15, written by Peter Selinger 2001-2017
</metadata>
<g transform="translate(0.000000,1102.000000) scale(0.100000,-0.100000)"
fill="#000000" stroke="none">
<path d="M5010 11011 c-83 -27 -166 -108 -285 -279 -41 -59 -80 -115 -87 -124
-12 -16 -21 -14 -123 30 l-110 47 -45 74 -45 74 -71 -7 c-95 -8 -115 -18 -169
-87 -45 -58 -47 -59 -96 -59 -81 0 -135 -18 -169 -57 -17 -18 -30 -40 -30 -48
0 -18 4 -18 -348 -5 -222 7 -255 10 -266 25 -18 25 -152 25 -223 1 -96 -32
-174 -140 -159 -220 4 -22 20 -47 45 -69 37 -33 40 -34 147 -40 99 -5 110 -3
122 14 12 18 29 19 268 19 209 0 260 -3 284 -15 17 -9 30 -21 30 -27 0 -6 -20
-64 -45 -129 -25 -65 -45 -125 -45 -133 0 -32 -30 -46 -97 -46 -44 0 -75 -6
-95 -17 -36 -22 -68 -80 -68 -125 0 -48 39 -119 80 -146 56 -38 156 -24 261
35 3 2 -4 -27 -17 -64 -96 -288 -78 -576 51 -850 61 -129 98 -181 228 -321
l115 -123 -454 -802 -454 -802 -147 -56 c-373 -142 -630 -283 -883 -485 -115
-92 -356 -334 -472 -474 -550 -664 -1011 -1489 -1289 -2307 -260 -767 -386
-1535 -339 -2063 65 -723 378 -1201 870 -1326 103 -26 322 -26 435 0 446 103
852 413 1260 960 675 906 1485 2469 1675 3231 21 86 42 134 108 254 l30 55 17
-60 c54 -199 122 -367 184 -458 86 -127 255 -241 452 -305 l66 -22 59 -96 c82
-135 204 -258 304 -306 108 -52 218 -71 425 -71 94 -1 189 2 212 6 l41 8 30
-53 c80 -139 238 -283 397 -362 50 -24 144 -60 210 -79 331 -94 658 -107 1200
-46 459 52 1050 109 1056 102 4 -4 62 -236 129 -517 68 -280 126 -519 130
-530 4 -11 43 -39 87 -62 l79 -43 204 55 c111 30 205 56 207 59 3 3 8 25 10
49 l5 44 -41 10 c-29 8 -54 8 -83 0 -33 -8 -61 -6 -136 8 -89 18 -95 21 -107
49 -18 44 -305 887 -305 896 0 13 235 71 239 59 11 -33 108 -163 162 -217 361
-365 1013 -356 1576 20 134 90 249 204 368 366 107 145 228 336 216 340 -4 1
-250 -67 -546 -153 l-538 -155 -356 -15 c-196 -8 -377 -15 -404 -15 l-48 0 16
30 c9 16 23 30 33 30 9 0 185 9 390 20 l373 20 172 54 c95 30 327 102 517 160
392 119 796 255 950 318 97 40 107 47 138 93 40 60 171 327 201 408 26 71 27
139 2 192 -21 48 -99 119 -147 137 -19 7 -34 14 -34 18 0 3 35 27 77 55 97 63
108 75 149 160 78 162 93 324 41 438 -65 143 -236 234 -338 181 -17 -8 -32
-14 -33 -12 -2 2 -8 84 -14 183 -14 214 -42 412 -76 538 -46 174 -143 370
-262 531 -65 87 -66 90 -46 105 11 9 40 33 64 54 l45 37 -8 48 c-22 119 -54
224 -91 302 -38 79 -55 99 -237 284 -281 286 -327 330 -413 391 -160 116 -385
208 -631 257 -159 32 -475 32 -620 0 -201 -44 -405 -131 -526 -222 -29 -23
-54 -40 -56 -38 -2 2 -15 50 -30 108 -78 313 -194 540 -393 765 -322 365 -897
699 -1417 821 l-120 28 53 8 c114 17 155 63 161 181 5 119 -12 135 -220 213
-68 25 -188 77 -266 114 l-143 69 0 73 0 73 -43 26 c-74 47 -105 59 -147 59
-56 0 -157 -43 -202 -87 l-37 -37 -128 23 c-182 32 -184 33 -256 94 -68 58
-121 77 -209 77 -61 0 -375 120 -563 214 l-160 81 3 85 4 85 -44 45 c-34 36
-58 50 -118 69 -79 25 -197 36 -240 22z m121 -166 c36 -23 38 -26 27 -55 -8
-25 -7 -34 7 -50 13 -15 14 -23 5 -39 -6 -12 -9 -25 -6 -30 3 -5 79 -49 168
-99 148 -81 183 -96 387 -161 123 -39 230 -71 236 -71 7 0 15 7 19 15 9 24 26
18 109 -41 l78 -55 -7 -74 -7 -73 49 -8 c54 -8 64 -16 64 -56 0 -24 -4 -27
-45 -34 -70 -10 -104 -2 -486 121 l-355 114 -223 127 c-140 80 -225 124 -231
118 -6 -6 -43 -73 -84 -149 l-75 -140 37 -7 c79 -15 79 -15 124 77 23 47 45
85 48 85 3 0 11 -4 18 -8 9 -7 4 -27 -23 -86 -19 -42 -35 -81 -35 -85 0 -4 44
-20 98 -35 65 -18 133 -47 206 -88 127 -71 210 -107 248 -108 22 0 34 9 55 43
15 23 28 44 29 46 2 1 72 -47 158 -108 l155 -111 -19 -54 c-18 -52 -24 -97
-21 -144 0 -14 24 -46 54 -77 l54 -53 -96 -32 c-53 -18 -103 -39 -113 -47 -10
-9 -19 -38 -23 -76 -10 -101 -65 -364 -92 -446 -48 -143 -98 -229 -182 -311
-131 -128 -302 -214 -536 -268 -139 -32 -349 -36 -459 -9 -86 22 -279 113
-360 171 -420 300 -521 944 -221 1396 52 78 126 134 267 200 127 59 215 81
356 87 69 3 118 9 111 14 -10 6 -6 17 17 46 28 35 184 312 184 326 0 4 -12 7
-26 7 -19 0 -25 4 -21 14 3 8 65 86 138 174 l132 160 35 -15 c19 -8 52 -25 73
-38z m1862 -619 c18 -8 47 -28 66 -44 l34 -29 -26 -71 c-22 -59 -24 -76 -16
-101 12 -35 17 -36 183 -51 145 -13 186 -22 287 -62 77 -30 79 -32 98 -82 11
-28 16 -55 11 -59 -4 -5 -61 -8 -126 -8 -140 0 -265 28 -388 84 l-76 36 -65
-110 c-36 -61 -65 -114 -65 -117 1 -4 91 -65 201 -136 189 -122 201 -128 214
-110 8 11 15 23 15 28 0 8 30 3 75 -14 l26 -10 -41 -59 c-22 -33 -40 -64 -40
-68 0 -5 21 -30 48 -55 l47 -47 90 74 c49 41 93 75 98 75 5 0 55 -32 111 -71
72 -52 117 -92 156 -142 30 -39 57 -75 58 -79 2 -5 -50 25 -115 65 -65 41
-128 79 -139 85 -19 10 -31 4 -99 -49 l-77 -61 38 -40 c22 -22 227 -210 457
-418 326 -295 440 -391 517 -440 l100 -62 35 26 c51 39 98 56 154 56 40 0 59
-7 110 -41 33 -22 61 -43 61 -46 0 -3 -20 -2 -45 2 -63 9 -142 -15 -182 -57
-38 -40 -80 -127 -89 -185 -3 -24 -9 -43 -12 -43 -3 0 -23 12 -45 27 -30 21
-37 31 -32 47 28 98 29 119 11 130 -97 57 -314 230 -772 612 l-542 453 -93
-14 c-52 -8 -97 -15 -101 -15 -5 0 -8 22 -8 49 0 27 -5 72 -11 99 -12 48 -11
49 30 112 23 34 40 64 39 66 -3 2 -306 188 -346 211 -10 6 -3 32 32 115 25 59
46 109 46 111 0 6 -60 30 -64 26 -13 -16 -326 -630 -326 -641 0 -7 16 -46 35
-87 19 -40 35 -78 35 -85 0 -7 -24 -47 -53 -89 l-54 -77 9 -67 c5 -37 15 -74
21 -82 7 -8 93 -75 192 -149 l180 -133 50 7 c115 16 171 -5 193 -72 32 -95
-62 -244 -155 -244 -49 0 -120 78 -138 152 -6 22 -53 57 -251 183 -135 87
-246 156 -248 154 -1 -2 -85 -116 -186 -254 -101 -137 -189 -256 -195 -263
-10 -12 -22 -11 -68 4 l-55 17 70 106 c126 189 191 349 156 378 -8 7 -89 29
-181 49 -189 42 -176 28 -127 137 l28 63 224 48 c123 26 226 51 230 54 4 4 29
68 57 143 28 78 155 355 297 647 195 403 252 512 268 515 49 10 129 6 159 -7z
m130 -613 c27 -13 47 -26 45 -27 -4 -4 -151 14 -156 19 -2 2 2 13 8 25 13 24
26 22 103 -17z m174 -78 c312 -41 664 -146 928 -275 269 -132 654 -427 863
-660 94 -105 264 -354 288 -422 36 -102 108 -423 91 -408 -3 3 -17 36 -32 75
-58 155 -154 307 -238 377 -158 131 -469 287 -832 417 -105 38 -145 58 -207
105 -43 32 -78 62 -78 67 0 4 9 31 20 58 l20 51 -45 54 c-36 45 -44 62 -42 91
2 34 -2 38 -193 190 -185 147 -197 154 -240 155 -132 1 -312 45 -450 109 l-65
30 47 1 c26 0 100 -7 165 -15z m-483 -340 c74 -47 142 -132 151 -187 10 -62
14 -67 254 -330 13 -15 22 -31 18 -34 -9 -10 -90 52 -321 246 -115 96 -220
184 -234 196 l-25 20 48 62 c27 34 50 62 51 62 2 0 28 -16 58 -35z m-75 -375
c214 -84 313 -154 561 -396 91 -89 175 -166 187 -173 28 -14 45 -7 67 30 60
101 125 136 237 125 l71 -7 370 -337 369 -337 43 3 c25 2 63 -5 96 -17 70 -27
83 -26 148 4 108 50 200 166 221 280 l8 45 -63 47 c-35 26 -62 48 -60 50 7 7
175 -71 225 -105 87 -59 141 -155 177 -311 19 -83 32 -455 16 -465 -6 -3 -66
1 -134 9 -68 9 -211 18 -318 22 -173 5 -229 2 -495 -25 -1043 -108 -1899 -159
-2213 -133 -232 19 -344 61 -452 170 -107 108 -156 231 -167 424 -7 117 -9
114 54 101 28 -6 32 -12 52 -86 49 -182 123 -321 218 -408 116 -106 177 -119
570 -120 307 0 497 8 1053 45 430 29 1285 94 1318 101 14 3 22 12 22 25 0 23
40 25 -395 -16 -818 -77 -1216 -91 -1575 -55 -496 50 -792 185 -905 413 -20
40 -38 89 -42 110 -6 41 -6 41 182 309 l61 86 35 -45 c37 -50 74 -79 82 -66 3
5 -7 48 -24 97 -16 48 -29 92 -29 99 0 7 10 24 23 39 l22 28 158 -51 157 -50
0 -52 c1 -67 26 -122 80 -170 105 -96 255 -109 367 -34 66 44 108 111 129 203
22 101 16 172 -20 218 -50 66 -149 110 -275 122 -58 6 -87 18 -238 98 -95 50
-173 96 -173 101 0 13 58 105 66 105 3 0 63 -23 133 -50z m-2103 -769 c43 -21
101 -54 127 -74 l48 -34 -41 -7 c-87 -14 -148 -115 -171 -283 -30 -225 30
-429 165 -564 l65 -65 -46 -85 c-24 -46 -83 -156 -129 -245 l-84 -160 51 -67
51 -66 -122 -210 c-67 -116 -124 -211 -125 -211 -2 0 -11 24 -21 53 -59 182
-168 341 -324 474 -74 64 -175 135 -239 167 -45 24 -205 38 -308 28 -45 -4
-80 -4 -77 0 10 15 171 60 238 65 44 4 75 12 85 22 9 9 180 305 381 659 235
413 371 642 381 642 8 0 51 -18 95 -39z m5889 -42 c207 -44 388 -170 457 -315
32 -67 33 -72 33 -204 -1 -116 -4 -143 -23 -191 -35 -89 -106 -146 -184 -148
-30 -1 -36 -12 -15 -29 25 -21 66 -24 123 -7 77 22 110 56 119 123 10 73 56
139 120 172 44 22 61 25 150 24 122 -2 256 -35 371 -90 143 -70 268 -215 324
-378 23 -68 14 -111 -35 -160 -109 -109 -405 -84 -405 35 0 37 42 85 88 99 72
22 68 20 52 30 -8 6 -32 10 -54 10 -34 0 -66 -13 -171 -69 -26 -14 -77 -16
-380 -15 -192 0 -442 6 -555 12 -433 25 -716 43 -747 48 l-33 5 0 109 c0 60 3
111 8 114 4 2 210 0 457 -5 312 -6 468 -6 509 2 201 36 292 190 241 408 -53
225 -251 372 -555 411 -148 19 -304 0 -460 -56 -77 -27 -238 -106 -300 -146
-30 -19 -33 -19 -20 -3 25 31 154 111 233 143 95 40 234 80 317 92 86 11 224
3 335 -21z m-15 -44 c80 -21 189 -78 267 -139 106 -83 148 -146 159 -239 15
-125 -57 -240 -167 -268 -73 -19 -748 -19 -859 -1 -117 20 -120 23 -175 207
-15 49 -40 116 -55 148 -25 52 -26 59 -11 65 9 4 106 7 216 7 198 0 201 0 350
-38 83 -21 241 -68 353 -106 111 -37 202 -66 202 -64 0 12 -281 136 -357 158
-115 34 -296 70 -491 99 l-157 23 45 21 c117 54 285 61 447 19 128 -33 291
-86 408 -131 108 -42 86 -20 -46 48 -157 80 -401 145 -553 147 -83 1 -52 14
89 38 134 24 261 26 335 6z m-1978 -1042 c80 -73 78 -70 78 -121 0 -28 8 -55
24 -80 26 -40 76 -188 76 -226 0 -12 9 -57 20 -100 24 -92 26 -88 -74 -151
-123 -76 -320 -159 -401 -167 l-30 -3 2 79 c4 123 15 149 81 201 31 25 105 71
164 102 137 74 140 84 18 64 -100 -17 -167 -49 -235 -113 -63 -59 -64 -59
-106 -51 -31 6 -43 14 -45 28 -9 61 -16 85 -34 108 l-20 25 41 37 c55 50 155
113 291 185 l113 60 -60 0 c-80 0 -180 -23 -250 -56 -70 -32 -181 -135 -243
-224 -25 -36 -49 -69 -52 -73 -4 -4 -61 22 -127 58 -176 96 -177 94 218 290
218 109 308 148 371 163 46 11 91 20 100 21 9 1 45 -25 80 -56z m2108 -121
c22 -9 18 -11 -30 -12 -77 -2 -37 -15 70 -24 124 -10 159 -22 205 -70 69 -71
141 -227 125 -271 -6 -16 -13 -7 -39 49 -17 38 -31 73 -31 77 0 16 -59 39
-132 50 -193 30 -778 -32 -963 -102 l-50 -19 -17 23 c-10 12 -29 44 -44 71
-33 61 -36 59 124 117 65 23 121 46 126 50 5 4 -60 -10 -144 -31 -85 -22 -155
-38 -157 -36 -6 5 159 64 242 86 67 18 201 44 275 54 63 8 414 -2 440 -12z
m614 -73 c14 -35 20 -39 49 -39 57 0 100 -71 98 -159 -2 -127 -22 -400 -33
-454 -9 -47 -8 -61 2 -67 10 -6 11 -26 5 -87 -10 -96 -10 -120 0 -358 9 -207
5 -236 -42 -309 -22 -33 -24 -46 -18 -91 l6 -52 -62 -16 c-35 -9 -67 -14 -71
-11 -4 3 -8 31 -8 63 l0 57 -37 10 c-55 14 -50 29 17 49 33 10 66 25 73 33 11
13 3 14 -61 8 -92 -8 -92 5 -2 51 34 17 70 39 79 48 15 15 12 16 -34 9 -27 -5
-63 -8 -80 -9 -28 0 -30 2 -27 34 8 74 15 81 86 81 55 0 69 4 95 26 31 25 41
66 21 79 -5 3 -23 -1 -41 -10 -42 -22 -125 -35 -139 -21 -5 5 -10 20 -10 32 0
22 18 32 92 48 15 4 43 20 63 37 27 24 35 39 35 65 0 40 -5 41 -99 19 -70 -17
-81 -12 -81 31 0 12 -10 25 -25 32 -36 17 -35 18 -35 -38 0 -46 3 -52 35 -72
19 -13 35 -26 35 -30 0 -17 -106 -78 -137 -78 -52 0 -57 20 -42 183 6 78 12
224 13 324 2 223 -3 215 125 221 l89 4 17 -32 17 -33 -66 5 c-80 7 -86 0 -86
-97 0 -61 2 -66 26 -77 19 -9 44 -9 100 -1 135 19 152 45 167 254 9 132 9 150
-6 173 -22 33 -72 46 -177 46 -54 0 -91 5 -98 12 -22 22 -13 48 23 65 25 12
36 25 41 47 5 29 9 31 49 33 42 2 44 1 59 -38z m-1700 -18 c42 -47 44 -192 3
-253 -50 -72 -81 -59 -71 29 5 40 2 59 -10 78 -15 22 -23 25 -81 25 -76 0 -85
-8 -116 -115 -12 -38 -28 -78 -37 -88 -14 -16 -16 -16 -34 0 -10 9 -31 57 -47
107 -16 50 -32 99 -36 108 -9 23 25 43 127 73 189 57 274 67 302 36z m-6100
-124 l39 -12 -182 -73 c-100 -39 -196 -72 -214 -72 -46 0 -135 -48 -182 -98
-22 -24 -74 -64 -115 -90 -41 -25 -88 -57 -104 -70 -16 -12 -50 -34 -75 -47
-50 -25 -94 -69 -189 -185 -33 -41 -81 -92 -106 -112 -24 -21 -70 -76 -102
-124 -47 -71 -71 -95 -137 -141 -43 -31 -92 -75 -108 -97 -69 -96 -109 -140
-189 -209 -85 -73 -179 -142 -184 -135 -2 1 72 93 165 202 93 109 169 203 169
208 0 18 224 246 298 303 56 43 89 80 141 158 38 56 85 118 104 138 52 53 233
183 290 208 27 11 71 39 97 61 53 44 138 86 215 106 28 6 102 30 165 53 124
43 144 46 204 28z m-439 -38 c-27 -11 -57 -27 -65 -34 -9 -8 -43 -26 -75 -41
-33 -14 -90 -48 -126 -75 -37 -27 -100 -65 -141 -83 -63 -29 -89 -51 -183
-148 -61 -62 -185 -183 -277 -268 -120 -111 -178 -173 -203 -215 -38 -64 -65
-92 -138 -142 -25 -18 -72 -67 -103 -110 -64 -88 -115 -145 -159 -176 l-30
-22 25 35 c198 278 677 808 875 967 172 138 357 244 530 302 102 34 146 40 70
10z m4620 -90 c33 -26 80 -52 104 -59 l44 -11 -5 -122 c-6 -129 -24 -199 -59
-217 -39 -22 -238 -5 -227 19 2 3 15 29 31 58 20 40 29 74 35 143 8 89 7 93
-22 152 l-30 60 23 19 c26 22 25 22 106 -42z m-4170 -29 c-4 -6 -23 -19 -44
-29 -20 -11 -44 -27 -51 -36 -8 -9 -61 -41 -119 -71 -109 -55 -237 -140 -304
-200 -20 -19 -41 -34 -47 -34 -5 0 -23 -20 -40 -44 -28 -41 -34 -45 -78 -48
-50 -3 -51 -6 -37 -59 6 -25 3 -27 -59 -49 -63 -23 -65 -25 -83 -74 -18 -50
-18 -50 -85 -69 -67 -20 -67 -20 -73 -61 -4 -22 -12 -48 -18 -56 -17 -21 -104
-91 -162 -130 -27 -18 -66 -48 -86 -67 -19 -18 -78 -64 -129 -101 -60 -43
-107 -86 -130 -118 -32 -47 -135 -168 -113 -134 12 18 190 248 326 420 95 121
201 226 320 320 31 25 73 68 92 96 19 28 73 87 119 133 78 75 87 82 121 79 42
-3 46 1 128 116 40 57 51 66 69 60 15 -4 51 7 117 39 107 50 280 114 326 120
17 2 34 5 38 6 5 0 5 -4 2 -9z m0 -157 c4 -12 -2 -24 -18 -38 -34 -29 -830
-653 -884 -694 l-45 -34 30 59 c21 41 45 70 81 96 32 25 61 58 83 97 31 56 35
59 99 80 84 27 151 79 190 148 18 32 43 60 62 70 18 9 45 26 60 39 16 13 33
24 38 24 6 0 25 11 43 25 17 13 55 29 84 35 41 9 55 18 69 42 10 16 34 38 53
48 44 24 46 24 55 3z m5477 -35 c-15 -59 -90 -123 -188 -159 -33 -12 -156 -67
-274 -121 -307 -143 -420 -185 -420 -159 0 25 169 127 504 303 116 61 235 126
265 143 50 30 56 32 85 19 17 -7 30 -19 28 -26z m-3987 -88 c34 -16 78 -33 97
-37 l36 -8 -220 -375 c-200 -340 -241 -418 -440 -840 -271 -575 -361 -753
-676 -1340 -240 -445 -252 -465 -289 -481 -54 -24 -138 -133 -170 -222 -64
-182 -136 -237 -216 -167 -19 16 -47 54 -61 82 l-27 53 44 120 44 120 66 9 66
9 -6 48 c-5 46 -2 55 102 246 59 109 109 200 111 202 2 2 27 8 56 12 91 14
185 49 226 85 43 37 106 149 141 253 24 71 71 257 71 282 0 9 212 416 471 904
259 488 473 893 475 900 3 7 -14 24 -38 38 l-43 25 -146 -287 c-80 -157 -196
-383 -259 -501 -62 -118 -191 -369 -287 -557 -95 -189 -175 -344 -176 -345 -1
-2 -15 7 -30 19 l-28 22 241 481 c224 448 241 486 247 548 8 88 48 169 265
533 l171 287 60 -44 c33 -24 87 -58 122 -74z m353 -233 l41 -42 -24 -52 c-69
-143 -125 -513 -125 -828 0 -101 -13 -89 -36 35 -28 145 -25 488 4 630 24 114
80 300 91 300 4 0 26 -19 49 -43z m4052 -162 c8 -10 9 -19 4 -25 -5 -4 -58
-50 -119 -100 -141 -118 -186 -139 -231 -106 -18 14 -18 15 11 46 17 17 55 48
85 68 60 40 221 132 231 132 4 0 12 -7 19 -15z m-2098 -52 c60 -62 82 -112 76
-173 l-3 -35 -48 48 -48 48 -32 -26 c-99 -81 -195 -242 -222 -371 -34 -170
-29 -267 10 -156 39 111 60 161 93 222 40 74 104 170 113 170 4 0 -4 -35 -18
-77 -150 -478 -191 -983 -112 -1391 88 -456 368 -843 697 -962 46 -17 86 -29
88 -27 3 2 -22 20 -53 40 l-58 36 220 1 c223 0 354 11 589 50 66 11 121 18
123 16 2 -2 -20 -12 -49 -21 -80 -26 -157 -68 -135 -73 47 -10 392 67 540 121
l66 24 52 -53 c29 -30 51 -56 48 -58 -11 -11 -367 -108 -497 -136 -268 -57
-340 -65 -577 -64 -255 1 -315 12 -470 89 -117 59 -201 123 -313 240 -248 259
-435 675 -507 1130 -22 139 -31 454 -16 585 38 326 136 564 309 750 23 24 48
59 54 77 7 18 15 33 18 33 3 0 31 -26 62 -57z m-975 -72 c-195 -361 -208
-1070 -31 -1699 57 -205 148 -414 237 -547 76 -114 60 -107 228 -99 l146 7 78
-138 c43 -75 86 -145 94 -155 22 -25 152 -64 320 -96 77 -15 148 -32 158 -40
15 -11 -1 -13 -112 -14 -333 0 -610 100 -854 310 -237 204 -429 554 -516 945
-106 475 -75 1003 84 1405 38 98 45 107 91 140 30 21 57 49 66 70 l15 35 16
-29 c15 -28 14 -32 -20 -95z m3303 74 c35 -18 36 -14 -43 -171 -83 -164 -135
-228 -158 -193 -5 8 -9 47 -9 87 0 60 4 79 25 112 26 41 142 180 151 180 3 0
18 -7 34 -15z m-6332 -421 c34 -22 46 -60 77 -238 26 -153 27 -160 9 -173 -9
-7 -108 -61 -218 -119 -111 -58 -206 -111 -212 -118 -9 -9 -55 -510 -54 -587
0 -9 -38 -74 -83 -145 -101 -156 -150 -241 -256 -444 -44 -85 -81 -146 -81
-136 0 10 9 72 20 137 l20 118 -34 87 c-42 102 -85 172 -132 214 -30 26 -43
30 -90 30 -72 0 -160 -23 -251 -65 -40 -19 -73 -30 -73 -26 0 4 46 83 103 176
385 635 808 1137 1075 1275 80 42 131 45 180 14z m9269 -19 c167 -50 242 -299
145 -480 -38 -71 -212 -199 -842 -621 -283 -190 -504 -343 -490 -339 43 13
131 60 611 326 l467 259 52 -11 c35 -8 65 -22 89 -44 34 -32 36 -37 36 -97 0
-51 -6 -75 -33 -129 l-33 -65 -112 -1 c-219 -1 -386 -64 -1087 -408 -521 -257
-684 -329 -871 -390 -187 -60 -287 -78 -434 -78 -198 0 -203 8 -43 72 216 87
374 168 426 218 l47 45 -24 19 c-13 10 -32 19 -42 19 -10 0 -19 3 -19 8 0 4
177 120 392 257 215 138 438 280 494 317 l102 66 -9 43 c-6 24 -12 45 -13 47
-2 1 -248 -160 -547 -359 -634 -422 -555 -392 -744 -283 -148 84 -149 90 -27
164 48 29 254 157 457 283 1069 665 1184 735 1567 958 296 172 384 219 412
219 12 0 45 -7 73 -15z m-3845 -96 c32 -8 98 -69 98 -89 0 -4 -60 -14 -132
-24 -73 -9 -148 -20 -165 -23 l-33 -5 25 73 c14 41 27 79 29 85 4 12 107 2
178 -17z m-3931 -379 c0 -74 -1 -238 -1 -365 l-1 -230 -25 30 c-39 47 -112
203 -130 280 -9 39 -17 112 -17 165 0 94 0 96 64 248 l63 154 23 -74 c20 -61
24 -95 24 -208z m4093 110 c9 -30 37 -90 62 -134 l46 -79 172 7 c94 3 199 9
234 12 l62 6 30 -65 c16 -37 42 -106 57 -154 45 -149 35 -373 -27 -594 l-10
-36 -77 78 c-82 84 -95 90 -156 64 -45 -18 -50 -35 -37 -121 5 -38 10 -72 10
-76 0 -4 32 -33 70 -64 39 -31 70 -59 70 -63 0 -3 -39 -20 -86 -36 -47 -16
-88 -33 -90 -37 -3 -4 5 -25 16 -48 25 -48 45 -51 164 -20 64 16 93 31 167 85
l89 66 0 -30 c0 -20 11 -43 31 -66 38 -43 104 -65 311 -100 81 -13 162 -31
180 -39 l33 -14 -65 -2 c-36 -1 -126 -5 -200 -9 -105 -6 -139 -4 -155 6 -33
22 -48 16 -138 -57 -48 -38 -126 -101 -174 -140 -78 -63 -165 -111 -179 -98
-2 3 -9 43 -14 88 -13 115 -34 172 -85 227 -24 27 -45 46 -48 43 -3 -3 -34
-64 -70 -136 -36 -72 -78 -145 -93 -164 -26 -31 -31 -32 -78 -27 -28 3 -77 15
-108 27 -55 20 -59 25 -137 141 -44 65 -92 142 -106 169 -33 65 -49 181 -40
295 l7 90 -21 -19 c-38 -34 -81 -136 -87 -206 -16 -171 68 -335 236 -463 l35
-26 -55 15 c-217 59 -372 208 -411 392 -19 92 -7 270 26 372 86 269 282 520
480 615 39 18 79 36 90 40 17 5 16 8 -13 22 -31 15 -35 15 -97 -12 -172 -73
-338 -218 -412 -360 -39 -77 -103 -256 -103 -293 0 -9 -4 -23 -9 -30 -12 -19
-81 17 -132 69 -56 57 -63 54 -221 -92 l-100 -93 7 -105 c4 -58 8 -117 9 -131
1 -21 -3 -25 -24 -23 -93 10 -167 261 -141 481 19 158 71 283 160 385 31 34
99 83 105 76 2 -2 10 -24 18 -49 l14 -45 68 -9 c45 -6 74 -6 85 1 9 5 36 47
60 92 24 45 70 113 102 151 66 78 65 80 -39 80 -41 0 -62 4 -56 9 5 6 77 39
160 75 134 58 173 70 346 106 107 22 206 44 219 49 32 12 43 0 63 -69z m-3985
-525 c1 -52 25 -193 46 -267 14 -51 -25 16 -56 96 -29 75 -31 88 -27 172 8
147 34 146 37 -1z m7605 -464 c-17 -44 -85 -111 -169 -168 -63 -42 -342 -135
-820 -273 -192 -55 -434 -129 -537 -164 -103 -35 -186 -60 -183 -56 2 4 36 33
73 64 116 94 212 131 537 206 332 77 652 197 970 364 77 40 141 72 143 71 2
-1 -5 -21 -14 -44z m-10918 -1131 c30 -169 72 -188 255 -118 l77 29 90 -21
c82 -18 94 -18 126 -5 20 9 36 13 36 11 0 -24 -163 -852 -174 -882 -58 -167
-186 -313 -333 -382 -49 -23 -71 -27 -145 -27 -80 0 -89 2 -130 30 -96 68
-138 191 -138 405 0 282 86 652 251 1085 l54 140 8 -90 c4 -49 14 -128 23
-175z"/>
<path d="M4800 10151 c33 -28 50 -31 50 -10 0 9 -60 39 -77 39 -4 0 8 -14 27
-29z"/>
<path d="M4900 10113 c0 -13 64 -76 129 -126 85 -66 164 -165 217 -272 67
-136 85 -208 91 -366 6 -146 -3 -226 -39 -344 l-22 -70 -8 66 c-11 97 -22 119
-56 119 -42 0 -92 -41 -216 -173 -106 -114 -146 -142 -132 -94 4 12 15 58 26
102 11 44 31 114 46 155 23 66 26 87 22 171 -3 83 -8 104 -35 160 -35 71 -116
167 -167 198 -31 19 -76 28 -76 16 0 -3 14 -32 30 -65 37 -73 37 -86 4 -94
-74 -19 -125 -100 -132 -212 -4 -70 -4 -72 30 -109 28 -30 48 -41 104 -55 81
-21 84 -26 60 -140 -20 -95 -64 -188 -131 -275 -83 -109 -193 -185 -266 -185
l-33 0 45 28 c98 62 181 194 244 387 19 58 35 110 35 115 0 5 -10 12 -22 16
-13 4 -49 34 -81 67 l-58 61 -86 -43 c-64 -31 -88 -39 -94 -30 -4 7 -10 53
-14 103 -10 132 0 159 86 239 40 36 68 70 65 76 -23 37 -121 -20 -182 -106
-31 -44 -47 -59 -69 -61 l-28 -4 6 55 c7 74 26 106 107 184 39 37 70 71 70 75
0 14 -40 8 -85 -13 -54 -26 -96 -71 -134 -147 -16 -31 -37 -68 -48 -80 l-18
-24 -20 22 c-14 16 -20 35 -19 66 1 68 45 128 143 199 90 64 93 83 6 40 -126
-61 -246 -181 -285 -283 -39 -102 -34 -266 11 -389 34 -95 34 -91 5 -86 l-27
5 31 -83 c94 -257 293 -455 507 -503 142 -32 349 -15 477 39 96 40 231 152
311 256 131 169 196 364 196 589 0 267 -84 475 -265 656 -104 104 -256 203
-256 167z m-824 -798 c9 -14 28 -64 41 -112 13 -47 33 -104 44 -125 15 -29 17
-39 7 -43 -103 -37 -102 -37 -120 -15 -21 26 -56 118 -64 170 -8 52 3 107 27
131 26 26 45 24 65 -6z m156 -91 c9 -16 26 -53 37 -82 l21 -52 -25 -12 c-14
-6 -28 -9 -31 -6 -3 3 -16 37 -29 75 -34 97 -16 150 27 77z"/>
<path d="M11088 6083 c-15 -4 -18 -17 -18 -83 0 -77 0 -78 29 -88 26 -9 30 -8
35 11 3 12 6 32 6 45 0 15 6 22 19 22 10 0 48 9 84 20 46 14 66 26 70 40 8 31
-7 33 -81 10 -91 -26 -102 -26 -102 5 0 25 -7 27 -42 18z"/>
<path d="M11270 5949 c-19 -11 -52 -22 -72 -25 -38 -7 -45 -17 -29 -43 11 -17
76 -7 119 19 22 14 32 27 32 45 0 29 -3 29 -50 4z"/>
<path d="M11910 4465 c-228 -146 -416 -268 -417 -272 -5 -15 38 -75 51 -70 7
3 193 124 413 270 l401 265 -7 33 c-3 18 -11 34 -16 35 -6 2 -197 -116 -425
-261z"/>
<path d="M11355 4081 c-16 -10 -199 -121 -405 -246 -206 -125 -376 -229 -378
-230 -10 -9 33 -55 45 -50 10 3 765 456 800 480 5 3 -21 65 -27 65 -3 0 -18
-9 -35 -19z"/>
<path d="M8800 4216 c-86 -39 -122 -66 -89 -66 7 0 63 17 125 37 102 33 111
38 101 55 -16 25 -28 22 -137 -26z"/>
<path d="M8930 4185 c-41 -19 -135 -60 -208 -92 -125 -54 -134 -60 -157 -102
-14 -24 -25 -45 -25 -47 0 -2 35 13 78 32 42 20 159 72 260 117 l182 80 -22
24 c-12 12 -24 23 -27 22 -3 0 -40 -16 -81 -34z"/>
<path d="M8980 4046 c-74 -35 -197 -96 -272 -136 -118 -61 -138 -75 -138 -95
0 -23 2 -23 103 24 176 83 431 212 450 229 20 18 23 42 5 42 -7 -1 -74 -29
-148 -64z"/>
<path d="M8820 3880 c-273 -133 -285 -140 -283 -165 1 -15 4 -29 6 -32 3 -2
117 54 253 125 137 71 268 139 291 150 33 17 40 26 36 42 -3 11 -8 20 -12 19
-3 -1 -134 -63 -291 -139z"/>
<path d="M8835 3784 c-154 -80 -283 -148 -288 -153 -4 -4 -1 -15 6 -25 11 -16
36 -5 292 130 154 81 281 148 283 149 1 1 -1 11 -5 23 -8 20 -25 12 -288 -124z"/>
<path d="M8870 3694 c-140 -74 -259 -139 -264 -144 -4 -4 -4 -19 0 -34 l9 -25
148 64 c252 108 377 190 377 246 0 16 -3 29 -7 29 -5 0 -123 -61 -263 -136z"/>
<path d="M8885 3549 c-204 -105 -230 -121 -227 -141 1 -12 6 -26 11 -31 11
-11 224 97 338 171 84 56 119 91 111 111 -2 4 -106 -45 -233 -110z"/>
<path d="M8875 3400 c-82 -49 -151 -95 -153 -102 -1 -8 5 -21 15 -30 17 -15
27 -10 145 61 118 70 128 79 142 119 8 23 12 42 8 41 -4 0 -74 -41 -157 -89z"/>
</g>
</svg>
